<?xml version="1.0" encoding="UTF-8"?>
<svg width="752pt" height="752pt" version="1.1" viewBox="0 0 752 752" xmlns="http://www.w3.org/2000/svg">
 <defs>
  <clipPath id="c">
   <path d="m257 139.21h120v177.79h-120z"/>
  </clipPath>
  <clipPath id="b">
   <path d="m198 553h257v59.793h-257z"/>
  </clipPath>
  <clipPath id="a">
   <path d="m178 593h297v19.793h-297z"/>
  </clipPath>
 </defs>
 <path d="m494.4 346.4h-335.45c-5.4453 0-9.8672 4.4219-9.8672 9.8672v138.13c0 5.4453 4.4219 9.8672 9.8672 9.8672h335.45c5.4453 0 9.8672-4.4219 9.8672-9.8672l-0.003906-138.13c0-5.4453-4.418-9.8672-9.8633-9.8672z"/>
 <path d="m593.06 346.4h-70.879c1.1055 3.0977 1.8164 6.3945 1.8164 9.8672v104.32c45.484-12.926 78.93-54.746 78.93-104.32 0-5.4453-4.4219-9.8672-9.8672-9.8672z"/>
 <g clip-path="url(#c)">
  <path d="m366.14 139.21h-59.199c-2.1328 0-4.2148 0.69141-5.918 1.9727l-39.465 29.59c-2.4766 1.8633-3.9453 4.7852-3.9453 7.8945l-0.003906 128.27c0 5.4453 4.4219 9.8672 9.8672 9.8672h98.664c5.4453 0 9.8672-4.4219 9.8672-9.8672l-0.003906-157.86c0-5.4453-4.418-9.8672-9.8633-9.8672z"/>
 </g>
 <path d="m543.73 198.41h-147.99v59.199h147.99c5.4453 0 9.8672-4.4219 9.8672-9.8672v-39.469c0-5.4453-4.418-9.8633-9.8672-9.8633z"/>
 <path d="m237.88 198.41h-9.8672c-5.4453 0-9.8672 4.418-9.8672 9.8633v39.465c0 5.4453 4.4219 9.8672 9.8672 9.8672h9.8672z"/>
 <path d="m228.01 326.67c-2.5273 0-5.0508-0.96875-6.9766-2.8906l-19.734-19.734c-3.8594-3.8594-3.8594-10.094 0-13.949 3.8594-3.8594 10.094-3.8594 13.949 0l19.734 19.734c3.8594 3.8594 3.8594 10.094 0 13.949-1.9219 1.9219-4.4492 2.8906-6.9727 2.8906z"/>
 <path d="m178.68 326.67c-2.5273 0-5.0508-0.96875-6.9766-2.8906l-19.734-19.734c-3.8594-3.8594-3.8594-10.094 0-13.949 3.8594-3.8594 10.094-3.8594 13.949 0l19.734 19.734c3.8594 3.8594 3.8594 10.094 0 13.949-1.9219 1.9219-4.4453 2.8906-6.9727 2.8906z"/>
 <path d="m405.6 326.67c-2.5273 0-5.0508-0.96875-6.9766-2.8906-3.8594-3.8594-3.8594-10.094 0-13.949l19.734-19.734c3.8594-3.8594 10.094-3.8594 13.949 0 3.8594 3.8594 3.8594 10.094 0 13.949l-19.734 19.734c-1.9219 1.9219-4.4492 2.8906-6.9727 2.8906z"/>
 <path d="m454.93 326.67c-2.5273 0-5.0508-0.96875-6.9766-2.8906-3.8594-3.8594-3.8594-10.094 0-13.949l19.734-19.734c3.8594-3.8594 10.094-3.8594 13.949 0 3.8594 3.8594 3.8594 10.094 0 13.949l-19.734 19.734c-1.918 1.9219-4.4453 2.8906-6.9727 2.8906z"/>
 <g clip-path="url(#b)">
  <path d="m445.07 553.59h-236.79c-5.4453 0-9.8672 4.4219-9.8672 9.8672v39.465c0 5.4453 4.4219 9.8672 9.8672 9.8672h236.79c5.4453 0 9.8672-4.4219 9.8672-9.8672v-39.465c0-5.4453-4.418-9.8672-9.8633-9.8672z"/>
 </g>
 <path d="m410.62 554.98c-0.85938-0.51172-15.648-9.7461-23.75-30.98h-120.41c-8.1016 21.223-22.879 30.449-23.699 30.941-3.8477 2.25-5.7109 6.7891-4.5469 11.098 1.1562 4.3008 5.0625 7.293 9.5195 7.293h157.86c4.4297 0 8.2891-2.9688 9.4727-7.2422 1.1836-4.2734-0.64062-8.832-4.4492-11.109z"/>
 <g clip-path="url(#a)">
  <path d="m464.8 612.79h-276.25c-5.4453 0-9.8672-4.4219-9.8672-9.8672 0-5.4453 4.4219-9.8672 9.8672-9.8672h276.25c5.4453 0 9.8672 4.4219 9.8672 9.8672 0 5.4453-4.4219 9.8672-9.8672 9.8672z"/>
 </g>
</svg>