<?xml version="1.0" encoding="UTF-8"?>
<svg width="752pt" height="752pt" version="1.1" viewBox="0 0 752 752" xmlns="http://www.w3.org/2000/svg">
 <g>
  <path d="m540.57 333.38c-8.332 8.3086-19.609 12.988-31.375 13.023-4.7734 0.007812-9.5195-0.73828-14.059-2.2188l-18.352-6.0664-6.6602 6.5117v-0.003906c14.496 34.074 12.258 72.961-6.0547 105.14-18.309 32.184-50.594 53.977-87.289 58.926-36.691 4.9492-73.598-7.5117-99.777-33.695-26.184-26.184-38.645-63.086-33.695-99.781 4.9492-36.695 26.742-68.977 58.926-87.285 32.184-18.312 71.07-20.551 105.14-6.0547l6.6602-6.6602-6.2148-18.352c-2.6133-7.8281-2.9883-16.23-1.082-24.258 1.9102-8.0312 6.0273-15.363 11.887-21.176l3.2578-3.2578h-0.003906c-19.562-6.5234-40.055-9.8242-60.676-9.7656-40.633 0.035156-80.211 12.949-113.05 36.887-32.836 23.934-57.242 57.66-69.711 96.332-12.473 38.672-12.367 80.305 0.30078 118.91 12.664 38.609 37.242 72.211 70.195 95.98 32.957 23.77 72.598 36.484 113.23 36.316 40.633-0.16797 80.168-13.207 112.93-37.246 32.758-24.043 57.059-57.844 69.406-96.559 12.348-38.711 12.109-80.34-0.67969-118.91z"/>
  <path d="m384.14 305.11c-7.4648-2.0977-15.184-3.1445-22.938-3.1094-23.551 0-46.137 9.3555-62.789 26.008-16.652 16.652-26.008 39.238-26.008 62.789s9.3555 46.137 26.008 62.789c16.652 16.652 39.238 26.008 62.789 26.008s46.137-9.3555 62.789-26.008c16.652-16.652 26.008-39.238 26.008-62.789 0.035156-7.7539-1.0117-15.473-3.1094-22.938l-54.312 54.312c-8.2148 8.8125-19.656 13.91-31.699 14.125-12.047 0.21094-23.66-4.4805-32.18-13-8.5156-8.5156-13.207-20.129-12.996-32.176 0.21094-12.043 5.3125-23.488 14.125-31.699z"/>
  <path d="m582.81 239.4c-1.1797-4.9961-4.8672-9.0234-9.7383-10.641l-37.367-12.461-12.477-37.367c-1.625-4.8633-5.6484-8.5391-10.637-9.7148-4.9883-1.1797-10.23 0.30469-13.855 3.9258l-59.199 59.199c-1.9414 1.9453-3.3008 4.3906-3.9336 7.0625-0.62891 2.6758-0.50391 5.4727 0.36719 8.0781l11.84 35.727-97.129 97.129v-0.003906c-2.8555 2.7578-4.4844 6.5469-4.5195 10.52-0.03125 3.9688 1.5273 7.7852 4.3359 10.594 2.8086 2.8047 6.625 4.3672 10.594 4.332s7.7578-1.6602 10.516-4.5156l97.129-97.129 35.727 11.84c1.5234 0.52734 3.1211 0.80859 4.7344 0.82813 3.9258 0 7.6875-1.5625 10.465-4.3359l59.199-59.199h-0.003906c3.6328-3.625 5.1289-8.8711 3.9531-13.867z"/>
 </g>
</svg>