<?xml version="1.0" encoding="UTF-8"?>
<svg width="752pt" height="752pt" version="1.1" viewBox="0 0 752 752" xmlns="http://www.w3.org/2000/svg">
 <path d="m376 162.89c-4.4648 0-9.4727 4.7891-9.4727 9.4727v28.414c-0.070313 5.0039 4.4688 9.6055 9.4727 9.6055s9.543-4.6016 9.4727-9.6055v-28.414c0-5.375-5.0078-9.4727-9.4727-9.4727zm127.87 56.535c-0.39844 0.023438-0.79297 0.074219-1.1836 0.14844-2.0664 0.30078-4.0273 1.3047-5.4766 2.8125l-18.941 18.941c-3.6406 3.4609-3.7383 9.9531-0.20703 13.523 3.5312 3.5703 10.027 3.543 13.527-0.058593l18.941-18.941c2.8047-2.5938 3.7852-6.9766 2.3516-10.516-1.4375-3.543-5.1914-6.0039-9.0117-5.9141zm-256.77 0.14844c-3.5859 0.34766-6.8594 2.9297-8.0352 6.3359s-0.19531 7.457 2.4102 9.9453l18.941 18.941c3.5 3.6016 9.9961 3.6289 13.527 0.058594 3.5312-3.5703 3.4336-10.062-0.20703-13.523l-18.941-18.941c-1.9727-2.0273-4.8828-3.0938-7.6953-2.8203zm128.9 28.559c-52.941 0-104.19 43.16-104.19 104.19 0 74.461 50.238 85.457 56.238 132.6h95.898c6-47.141 56.238-58.141 56.238-132.6 0-61.031-51.246-104.19-104.19-104.19zm137.34 108.92c0 4.4648 4.4883 9.4727 9.4727 9.4727h33.152c5.0039 0.070312 9.4727-4.4688 9.4727-9.4727 0-5.0039-4.4688-9.543-9.4727-9.4727h-33.152c-5.457 0-9.4727 5.0078-9.4727 9.4727zm-326.77 0c0 4.4648 4.5078 9.4727 9.4727 9.4727h28.414c5.0039 0.070312 9.6055-4.4688 9.6055-9.4727 0-5.0039-4.6016-9.543-9.6055-9.4727h-28.414c-5.4492 0-9.4727 5.0078-9.4727 9.4727zm86.43 92.051c-2.4414 0.097656-4.832 1.1836-6.5117 2.9609l-24.418 24.27c-3.6406 3.4609-3.7383 9.9531-0.20703 13.523s10.027 3.543 13.527-0.058594l24.414-24.41c2.7188-2.6289 3.6133-6.9727 2.1523-10.465-1.457-3.4922-5.1758-5.9023-8.9609-5.8164zm204.82 0c-3.5859 0.34766-6.8594 2.9297-8.0352 6.3359-1.1758 3.4062-0.19531 7.457 2.4102 9.9453l24.418 24.418c3.5 3.6016 9.9961 3.6289 13.527 0.058593 3.5312-3.5703 3.4336-10.062-0.20703-13.523l-24.422-24.27c-1.7461-1.8477-4.2656-2.9414-6.8086-2.9609-0.29688-0.015625-0.59375-0.015625-0.88672 0zm-149.18 54.762v47.359c0 10.883 8.9492 18.941 18.941 18.941h56.828c9.9961 0 18.941-8.0586 18.941-18.941v-47.359z"/>
</svg>