<?xml version="1.0" encoding="UTF-8"?>
<svg width="752pt" height="752pt" version="1.1" viewBox="0 0 752 752" xmlns="http://www.w3.org/2000/svg">
 <g>
  <path d="m583.19 242.81h-111.59c5.0312-8.7344 7.9922-18.797 7.9922-29.602 0-32.707-26.492-59.199-59.199-59.199-17.758 0-33.594 7.8438-44.398 20.129-10.801-12.281-26.637-20.125-44.398-20.125-32.707 0-59.199 26.492-59.199 59.199 0 10.805 2.9609 20.867 7.9922 29.598h-111.59c-8.1367 0-14.797 6.6562-14.797 14.797v88.797c0 8.1406 6.6602 14.801 14.801 14.801h192.39v-29.598l-0.003906-59.199v-29.598h-29.598c-16.281 0-29.598-13.32-29.598-29.598 0-16.281 13.32-29.598 29.598-29.598 16.281 0 29.598 13.32 29.598 29.598v29.598h29.598v-29.602c0-16.281 13.32-29.598 29.598-29.598 16.281 0 29.598 13.32 29.598 29.598 0 16.281-13.32 29.598-29.598 29.598h-29.598v118.39h192.39c8.1406 0 14.801-6.6602 14.801-14.801l-0.003906-88.793c0-8.1406-6.6602-14.797-14.801-14.797z"/>
  <path d="m183.61 390.8v192.39c0 8.1406 6.6602 14.801 14.801 14.801h162.79v-207.19z"/>
  <path d="m390.8 390.8v207.19h162.79c8.1406 0 14.801-6.6602 14.801-14.801v-192.39z"/>
 </g>
</svg>